<svg width="130" height="115" viewBox="0 0 130 115" fill="none" xmlns="http://www.w3.org/2000/svg">
<path d="M67.9798 0.654669C65.6979 -0.218223 64.3018 -0.218223 62.0199 0.654669C54.1721 3.65651 57.8673 29.2067 60.9758 45.0138C54.194 30.1331 42.1024 6.7006 33.6454 7.81084C31.1862 8.13369 29.9998 8.78509 28.5813 10.5912C24.113 16.2806 39.1503 33.5261 50.9804 45.5915C36.8728 35.6244 16.7837 23.0328 10.5389 27.213C8.55637 28.5401 7.86873 29.6152 7.60388 31.802C6.7468 38.8777 30.5608 47.9157 47.6084 53.4493C29.6905 50.8395 3.93287 48.332 0.740061 54.8638C-0.246687 56.8824 -0.246687 58.1177 0.740061 60.1363C3.93287 66.6678 29.6905 64.1603 47.6084 61.5505C30.5608 67.0844 6.7468 76.1224 7.60385 83.198C7.86874 85.3847 8.55633 86.4597 10.5389 87.787C16.7837 91.9671 36.8725 79.3757 50.9804 69.4086C39.15 81.474 24.113 98.7194 28.5812 104.409C29.9997 106.215 31.1861 106.866 33.6453 107.189C42.1024 108.299 54.194 84.8664 60.9758 69.9856C57.8673 85.7929 54.1721 111.343 62.0199 114.345C64.3018 115.218 65.6979 115.218 67.9798 114.345C75.8276 111.343 72.1321 85.791 69.0235 69.984C75.805 84.8648 87.8973 108.3 96.3547 107.189C98.8139 106.866 100 106.215 101.419 104.409C105.887 98.7194 90.8501 81.474 79.0201 69.4086C93.1276 79.3757 113.216 91.9671 119.461 87.787C121.444 86.4597 122.131 85.3847 122.396 83.198C123.253 76.1224 99.4396 67.0844 82.392 61.5505C100.31 64.1603 126.067 66.6678 129.26 60.1363C130.247 58.1177 130.247 56.8824 129.26 54.8638C126.067 48.332 100.31 50.8395 82.392 53.4493C99.4396 47.9154 123.253 38.8777 122.396 31.802C122.131 29.6152 121.444 28.5401 119.461 27.213C113.216 23.0328 93.1273 35.6244 79.0197 45.5915C90.8498 33.5264 105.887 16.2806 101.419 10.5912C100 8.78509 98.8139 8.13369 96.3547 7.81084C87.8973 6.70057 75.805 30.1348 69.0235 45.0154C72.1321 29.2084 75.8276 3.65661 67.9798 0.654669Z" fill="#DB42DA"/>
</svg>
