<svg width="1440" height="1550" viewBox="0 0 1440 1550" fill="none" xmlns="http://www.w3.org/2000/svg">
<rect width="1440" height="1550" fill="#222222"/>
<path d="M300.537 149.242C295.148 146.253 291.851 146.253 286.462 149.242C267.93 159.524 276.656 247.038 283.997 301.18C267.981 250.211 239.426 169.951 219.455 173.753C213.647 174.859 210.846 177.09 207.496 183.277C196.944 202.764 232.455 261.832 260.392 303.158C227.077 269.019 179.635 225.891 164.888 240.209C160.206 244.755 158.582 248.437 157.957 255.927C155.933 280.162 212.171 311.119 252.429 330.073C210.115 321.134 149.288 312.545 141.748 334.917C139.417 341.831 139.417 346.063 141.748 352.977C149.288 375.348 210.115 366.759 252.429 357.82C212.17 376.775 155.933 407.732 157.957 431.967C158.582 439.457 160.206 443.138 164.888 447.685C179.635 462.002 227.076 418.875 260.392 384.736C232.454 426.062 196.944 485.13 207.496 504.617C210.845 510.803 213.647 513.035 219.455 514.14C239.426 517.942 267.981 437.681 283.997 386.712C276.656 440.855 267.93 528.369 286.462 538.651C291.851 541.641 295.148 541.641 300.537 538.651C319.07 528.369 310.343 440.848 303.002 386.707C319.016 437.676 347.573 517.943 367.545 514.14C373.353 513.035 376.155 510.803 379.505 504.617C390.057 485.13 354.546 426.062 326.609 384.736C359.924 418.875 407.365 462.002 422.113 447.685C426.794 443.138 428.418 439.457 429.044 431.967C431.067 407.732 374.83 376.775 334.572 357.82C376.885 366.759 437.712 375.348 445.252 352.977C447.583 346.063 447.583 341.831 445.252 334.917C437.712 312.545 376.885 321.134 334.572 330.073C374.83 311.118 431.067 280.162 429.044 255.927C428.418 248.437 426.794 244.755 422.112 240.209C407.365 225.891 359.924 269.019 326.608 303.158C354.545 261.833 390.057 202.764 379.504 183.277C376.155 177.09 373.353 174.859 367.545 173.753C347.573 169.951 319.016 250.216 303.002 301.185C310.343 247.044 319.07 159.524 300.537 149.242Z" fill="#2E2E30"/>
<path d="M573.537 611.242C568.148 608.253 564.851 608.253 559.462 611.242C540.93 621.524 549.656 709.038 556.997 763.18C540.981 712.211 512.426 631.951 492.455 635.753C486.647 636.859 483.846 639.09 480.496 645.277C469.944 664.764 505.455 723.832 533.392 765.158C500.077 731.019 452.635 687.891 437.888 702.209C433.206 706.755 431.582 710.437 430.957 717.927C428.933 742.162 485.171 773.119 525.429 792.073C483.115 783.134 422.288 774.545 414.748 796.917C412.417 803.831 412.417 808.063 414.748 814.977C422.288 837.348 483.115 828.759 525.429 819.82C485.17 838.775 428.933 869.732 430.957 893.967C431.582 901.457 433.206 905.138 437.888 909.685C452.635 924.002 500.076 880.875 533.392 846.736C505.454 888.062 469.944 947.13 480.496 966.617C483.845 972.803 486.647 975.035 492.455 976.14C512.426 979.942 540.981 899.681 556.997 848.712C549.656 902.855 540.93 990.369 559.462 1000.65C564.851 1003.64 568.148 1003.64 573.537 1000.65C592.07 990.369 583.343 902.848 576.002 848.707C592.016 899.676 620.573 979.943 640.545 976.14C646.353 975.035 649.155 972.803 652.505 966.617C663.057 947.13 627.546 888.062 599.609 846.736C632.924 880.875 680.365 924.002 695.113 909.685C699.794 905.138 701.418 901.457 702.044 893.967C704.067 869.732 647.83 838.775 607.572 819.82C649.885 828.759 710.712 837.348 718.252 814.977C720.583 808.063 720.583 803.831 718.252 796.917C710.712 774.545 649.885 783.134 607.572 792.073C647.83 773.118 704.067 742.162 702.044 717.927C701.418 710.437 699.794 706.755 695.112 702.209C680.365 687.891 632.924 731.019 599.608 765.158C627.545 723.833 663.057 664.764 652.504 645.277C649.155 639.09 646.353 636.859 640.545 635.753C620.573 631.951 592.016 712.216 576.002 763.185C583.343 709.044 592.07 621.524 573.537 611.242Z" fill="#2E2E30"/>
<path d="M1151.54 36.2423C1146.15 33.2526 1142.85 33.2526 1137.46 36.2423C1118.93 46.5241 1127.66 134.038 1135 188.18C1118.98 137.211 1090.43 56.9506 1070.45 60.7534C1064.65 61.8592 1061.85 64.0904 1058.5 70.2767C1047.94 89.7637 1083.46 148.832 1111.39 190.158C1078.08 156.019 1030.64 112.891 1015.89 127.209C1011.21 131.755 1009.58 135.437 1008.96 142.927C1006.93 167.162 1063.17 198.119 1103.43 217.073C1061.12 208.134 1000.29 199.545 992.748 221.917C990.417 228.831 990.417 233.063 992.748 239.977C1000.29 262.348 1061.12 253.759 1103.43 244.82C1063.17 263.775 1006.93 294.732 1008.96 318.967C1009.58 326.457 1011.21 330.138 1015.89 334.685C1030.64 349.002 1078.08 305.875 1111.39 271.736C1083.45 313.062 1047.94 372.13 1058.5 391.617C1061.85 397.803 1064.65 400.035 1070.45 401.14C1090.43 404.942 1118.98 324.681 1135 273.712C1127.66 327.855 1118.93 415.369 1137.46 425.651C1142.85 428.641 1146.15 428.641 1151.54 425.651C1170.07 415.369 1161.34 327.848 1154 273.707C1170.02 324.676 1198.57 404.943 1218.55 401.14C1224.35 400.035 1227.15 397.803 1230.5 391.617C1241.06 372.13 1205.55 313.062 1177.61 271.736C1210.92 305.875 1258.36 349.002 1273.11 334.685C1277.79 330.138 1279.42 326.457 1280.04 318.967C1282.07 294.732 1225.83 263.775 1185.57 244.82C1227.89 253.759 1288.71 262.348 1296.25 239.977C1298.58 233.063 1298.58 228.831 1296.25 221.917C1288.71 199.545 1227.89 208.134 1185.57 217.073C1225.83 198.118 1282.07 167.162 1280.04 142.927C1279.42 135.437 1277.79 131.755 1273.11 127.209C1258.36 112.891 1210.92 156.019 1177.61 190.158C1205.55 148.833 1241.06 89.7637 1230.5 70.2767C1227.15 64.0904 1224.35 61.8592 1218.55 60.7534C1198.57 56.9505 1170.02 137.216 1154 188.185C1161.34 134.044 1170.07 46.5245 1151.54 36.2423Z" fill="#2E2E30"/>
<path d="M205.537 1125.24C200.148 1122.25 196.851 1122.25 191.462 1125.24C172.93 1135.52 181.656 1223.04 188.997 1277.18C172.981 1226.21 144.426 1145.95 124.455 1149.75C118.647 1150.86 115.846 1153.09 112.496 1159.28C101.944 1178.76 137.455 1237.83 165.392 1279.16C132.077 1245.02 84.6355 1201.89 69.8879 1216.21C65.2062 1220.75 63.5823 1224.44 62.9569 1231.93C60.9328 1256.16 117.171 1287.12 157.429 1306.07C115.115 1297.13 54.2876 1288.54 46.7477 1310.92C44.4174 1317.83 44.4174 1322.06 46.7477 1328.98C54.2876 1351.35 115.115 1342.76 157.429 1333.82C117.17 1352.78 60.9328 1383.73 62.9568 1407.97C63.5823 1415.46 65.2061 1419.14 69.8879 1423.68C84.6354 1438 132.076 1394.87 165.392 1360.74C137.454 1402.06 101.944 1461.13 112.496 1480.62C115.845 1486.8 118.647 1489.03 124.455 1490.14C144.426 1493.94 172.981 1413.68 188.997 1362.71C181.656 1416.85 172.93 1504.37 191.462 1514.65C196.851 1517.64 200.148 1517.64 205.537 1514.65C224.07 1504.37 215.343 1416.85 208.002 1362.71C224.016 1413.68 252.573 1493.94 272.545 1490.14C278.353 1489.03 281.155 1486.8 284.505 1480.62C295.057 1461.13 259.546 1402.06 231.609 1360.74C264.924 1394.87 312.365 1438 327.113 1423.68C331.794 1419.14 333.418 1415.46 334.044 1407.97C336.067 1383.73 279.83 1352.78 239.572 1333.82C281.885 1342.76 342.712 1351.35 350.252 1328.98C352.583 1322.06 352.583 1317.83 350.252 1310.92C342.712 1288.54 281.885 1297.13 239.572 1306.07C279.83 1287.12 336.067 1256.16 334.044 1231.93C333.418 1224.44 331.794 1220.75 327.112 1216.21C312.365 1201.89 264.924 1245.02 231.608 1279.16C259.545 1237.83 295.057 1178.76 284.504 1159.28C281.155 1153.09 278.353 1150.86 272.545 1149.75C252.573 1145.95 224.016 1226.22 208.002 1277.19C215.343 1223.04 224.07 1135.52 205.537 1125.24Z" fill="#2E2E30"/>
<path d="M1247.54 900.871C1242.15 898.376 1238.85 898.376 1233.46 900.871C1214.93 909.448 1223.66 982.457 1231 1027.62C1214.98 985.104 1186.43 918.147 1166.45 921.319C1160.65 922.242 1157.85 924.103 1154.5 929.264C1143.94 945.521 1179.46 994.799 1207.39 1029.28C1174.08 1000.8 1126.64 964.815 1111.89 976.76C1107.21 980.552 1105.58 983.624 1104.96 989.873C1102.93 1010.09 1159.17 1035.92 1199.43 1051.73C1157.12 1044.27 1096.29 1037.11 1088.75 1055.77C1086.42 1061.54 1086.42 1065.07 1088.75 1070.84C1096.29 1089.5 1157.12 1082.34 1199.43 1074.88C1159.17 1090.69 1102.93 1116.52 1104.96 1136.73C1105.58 1142.98 1107.21 1146.05 1111.89 1149.85C1126.64 1161.79 1174.08 1125.81 1207.39 1097.33C1179.45 1131.81 1143.94 1181.09 1154.5 1197.34C1157.85 1202.5 1160.65 1204.37 1166.45 1205.29C1186.43 1208.46 1214.98 1141.5 1231 1098.98C1223.66 1144.15 1214.93 1217.16 1233.46 1225.74C1238.85 1228.23 1242.15 1228.23 1247.54 1225.74C1266.07 1217.16 1257.34 1144.14 1250 1098.98C1266.02 1141.5 1294.57 1208.46 1314.55 1205.29C1320.35 1204.37 1323.15 1202.5 1326.5 1197.34C1337.06 1181.09 1301.55 1131.81 1273.61 1097.33C1306.92 1125.81 1354.36 1161.79 1369.11 1149.85C1373.79 1146.05 1375.42 1142.98 1376.04 1136.73C1378.07 1116.52 1321.83 1090.69 1281.57 1074.88C1323.89 1082.34 1384.71 1089.5 1392.25 1070.84C1394.58 1065.07 1394.58 1061.54 1392.25 1055.77C1384.71 1037.11 1323.89 1044.27 1281.57 1051.73C1321.83 1035.92 1378.07 1010.09 1376.04 989.873C1375.42 983.624 1373.79 980.552 1369.11 976.76C1354.36 964.815 1306.92 1000.8 1273.61 1029.28C1301.55 994.8 1337.06 945.521 1326.5 929.264C1323.15 924.103 1320.35 922.242 1314.55 921.319C1294.57 918.147 1266.02 985.109 1250 1027.63C1257.34 982.462 1266.07 909.449 1247.54 900.871Z" fill="#2E2E30"/>
</svg>
