<svg width="326" height="321" viewBox="0 0 326 321" fill="none" xmlns="http://www.w3.org/2000/svg">
<path fill-rule="evenodd" clip-rule="evenodd" d="M164.967 25.7188C164.227 41.3533 155.279 64.4874 144.812 77.8529C134.857 90.6145 124.136 97.1136 95.0157 107.997C69.0184 117.719 43.5471 141.286 36.0581 162.604C34.7272 166.438 35.4457 166.889 26.3153 156.685L27.1099 155.018C33.0001 142.954 24.3221 136.5 13.6985 144.979C1.5616 154.674 4.14759 170.461 16.9683 164.715L19.9663 163.397C26.2288 170.123 8.55387 153.1 77.4192 225.108C88.2179 236.412 111.354 264.918 145.25 303.088C148.95 307.247 158.703 306.539 151.359 297.405C146.4 291.238 136.418 279.533 123.216 264.442C115.137 255.192 113.379 253.007 113.509 252.195C115.654 238.838 141.662 208.412 161.428 195.988C187.738 179.395 185.735 183.899 211.584 168.061C229.417 157.128 249.416 134.812 257.731 116.557C260.218 111.151 264.316 100.401 266.466 94.7518C267.257 92.6373 265.978 90.516 263.783 90.3532C258.764 89.9545 257.292 89.2744 246.898 82.722C226.352 69.743 217.27 66.5053 209.193 69.2086C207.401 69.8137 206.687 69.81 206.514 69.2416C201.396 48.3567 185.872 27.5476 171.361 22.2493C165.762 20.0673 165.267 20.3365 164.967 25.7188ZM172.674 28.8406C187.204 41.066 198.025 57.6226 200.652 71.5134C201.391 75.3538 202.22 75.5872 206.868 73.1347C211.796 70.5864 220.735 74.0022 237.866 85.0358C248.892 92.1084 253.285 94.2961 256.835 94.4618C260.205 94.5801 260.339 94.9229 258.418 98.9092C252.536 111.159 255.271 109.602 242.414 129.646C235.433 140.529 221.992 155.065 212.925 161.584C196.195 173.624 178.188 180.712 161.287 190.767C141.682 202.419 117.903 226.939 112.514 241.041C111.679 243.191 111.534 242.922 108.057 234.791C82.3416 174.747 39.552 168.985 38.6104 167.814C38.2965 167.424 43.6116 157.302 46.2033 153.354C56.3067 138.031 79.6288 120.113 102.201 110.382C134.152 96.6436 140.931 92.4138 150.112 80.7251C158.118 70.4958 165.832 51.7602 169.583 33.3189C170.791 27.2065 170.779 27.28 172.674 28.8406ZM52.7597 178.417C73.9418 190.949 89.4907 209.488 101.038 236.066L103.735 242.252C104.343 242.92 96.0207 233.545 41.3356 172.886C42.7019 173.523 47.2954 175.163 52.7597 178.417Z" fill="#805DC2"/>
</svg>
