<svg width="40" height="40" viewBox="0 0 40 40" fill="none" xmlns="http://www.w3.org/2000/svg">
<path d="M18.6816 6.36001C18.6003 5.92549 18.3497 5.54109 17.9849 5.29135C17.6202 5.04161 17.1711 4.94701 16.7366 5.02834C16.3021 5.10967 15.9177 5.36028 15.668 5.72504C15.4182 6.0898 15.3236 6.53883 15.405 6.97334L15.9466 9.87334C14.2348 10.754 12.8547 12.166 12.0133 13.8975C11.1719 15.629 10.9146 17.5866 11.28 19.4767L11.74 21.9317L11.8316 22.425C12.2616 24.715 11.4516 26.195 10.7816 27.4217C10.3066 28.2883 9.9033 29.0283 10.0533 29.8367C10.2366 30.8133 10.42 31.7917 11.3033 31.6267L32.47 27.665C33.35 27.4983 33.1666 26.5233 32.9833 25.5483C32.8116 24.6083 31.9233 23.6767 30.9916 22.6967C29.9816 21.6367 28.92 20.52 28.6516 19.2783C28.2633 17.47 28.1933 16.9667 28.1466 16.6333C28.1316 16.5283 28.12 16.4383 28.1 16.33C27.7242 14.2495 26.6201 12.3707 24.9854 11.0301C23.3507 9.68946 21.2921 8.97453 19.1783 9.01334L18.6816 6.36001Z" fill="#DB42DA"/>
<path fill-rule="evenodd" clip-rule="evenodd" d="M10.8978 7.13002C11.2252 7.4267 11.4214 7.84125 11.4433 8.28254C11.4652 8.72383 11.3109 9.15574 11.0145 9.48335C9.15613 11.5334 8.17279 13.825 7.96446 16.5834C7.93131 17.0243 7.72436 17.434 7.38914 17.7223C7.05392 18.0106 6.61788 18.154 6.17696 18.1209C5.73604 18.0877 5.32635 17.8808 5.03801 17.5455C4.74967 17.2103 4.60631 16.7743 4.63946 16.3334C4.90613 12.835 6.1878 9.84502 8.5428 7.24502C8.68984 7.08277 8.86741 6.95109 9.06536 6.8575C9.26331 6.7639 9.47776 6.71023 9.69647 6.69955C9.91517 6.68887 10.1338 6.72139 10.34 6.79526C10.5461 6.86912 10.7356 6.98287 10.8978 7.13002Z" fill="#DB42DA"/>
<path d="M14.916 32.8333C16.0827 34.1666 17.7493 35 19.5827 35C22.2493 35 24.416 33.1666 25.0827 30.8333L14.916 32.8333Z" fill="#DB42DA"/>
</svg>
