<svg width="28" height="30" viewBox="0 0 28 30" fill="none" xmlns="http://www.w3.org/2000/svg">
<ellipse cx="15.5" cy="15" rx="12.5" ry="11" fill="white"/>
<path d="M9.79417 6.13668C9.64237 6.12196 9.48939 6.13989 9.34397 6.18945C9.19855 6.23902 9.06352 6.31923 8.94661 6.42553C8.8297 6.53183 8.73319 6.66212 8.66259 6.80897C8.592 6.95582 8.54869 7.11635 8.53515 7.2814C8.52161 7.44644 8.53811 7.61277 8.58369 7.77089C8.62927 7.929 8.70305 8.07581 8.80081 8.20292C8.89858 8.33004 9.01841 8.43497 9.15347 8.51173C9.28853 8.58849 9.43618 8.63558 9.58798 8.6503L18.3014 9.48955L6.06623 20.4629C5.82885 20.6758 5.67898 20.9825 5.64959 21.3156C5.62019 21.6486 5.71368 21.9807 5.90949 22.2388C6.1053 22.4969 6.38738 22.6599 6.69369 22.6918C7 22.7238 7.30544 22.6221 7.54282 22.4092L19.7735 11.4399L18.8735 20.8897C18.8518 21.2166 18.9479 21.54 19.1417 21.7912C19.3354 22.0424 19.6114 22.2018 19.9113 22.2355C20.2113 22.2692 20.5115 22.1747 20.7484 21.9719C20.9853 21.7692 21.1403 21.4741 21.1806 21.1492L22.3421 8.95141C22.3618 8.74358 22.3433 8.53358 22.2877 8.33359C22.2321 8.13361 22.1405 7.94763 22.0182 7.78646C21.8959 7.62529 21.7454 7.49215 21.5754 7.39477C21.4054 7.29739 21.2193 7.23771 21.0279 7.21919L9.79417 6.13668Z" fill="black"/>
</svg>
