<svg width="125" height="38" viewBox="0 0 125 38" fill="none" xmlns="http://www.w3.org/2000/svg">
<g clip-path="url(#clip0_78_282)">
<path d="M125 0H0V38H125V0Z" fill="#805DC2"/>
<path d="M35.877 25.2027C36.1787 25.2027 36.4288 25.172 36.6275 25.1107C36.8334 25.0494 36.9954 24.9355 37.1132 24.7691C37.2383 24.5939 37.3229 24.3574 37.3669 24.0596C37.4111 23.7618 37.4332 23.3807 37.4332 22.9165H41.2962V30.0771H25.5684V25.2027C26.2158 25.2027 26.6795 25.1019 26.959 24.9004C27.2385 24.6902 27.3784 24.3005 27.3784 23.7311V17.083C27.3784 16.5049 27.2385 16.1151 26.959 15.9136C26.6795 15.7034 26.2158 15.5983 25.5684 15.5983V10.7239H41.2962V17.8844H37.4332C37.4332 17.4202 37.4111 17.0392 37.3669 16.7414C37.3229 16.4436 37.2383 16.2114 37.1132 16.045C36.9954 15.8786 36.8334 15.7647 36.6275 15.7034C36.4288 15.6334 36.1787 15.5983 35.877 15.5983H33.8904V19.0932H37.4111V21.4187H33.8904V25.2027H35.877ZM50.3687 10.7239V23.7837C50.3687 24.3705 50.49 24.7559 50.7329 24.9399C50.9757 25.1151 51.2847 25.2027 51.6599 25.2027H51.958V30.0771H42.6648V25.2027H43.0952C43.4853 25.2027 43.7721 25.0581 43.9562 24.7691C44.1473 24.4713 44.243 24.1516 44.243 23.81V17.083C44.243 16.5749 44.1069 16.2027 43.8346 15.9662C43.5699 15.7209 43.2607 15.5983 42.9076 15.5983H42.6648V10.7239H50.3687ZM58.9333 23.6523C58.963 24.9574 59.1689 25.8596 59.5514 26.3589C59.9415 26.8494 60.497 27.0946 61.2181 27.0946C61.461 27.0946 61.6963 27.0552 61.9246 26.9764C62.1599 26.8888 62.3769 26.753 62.5756 26.5691C62.7743 26.3764 62.9435 26.1267 63.0834 25.8202C63.2306 25.5048 63.3263 25.1107 63.3702 24.6377H67.388C67.2408 25.7676 66.9686 26.7136 66.5712 27.4756C66.1812 28.2377 65.6771 28.8552 65.059 29.3282C64.4409 29.7924 63.7199 30.1252 62.8958 30.3267C62.0791 30.5369 61.1666 30.6422 60.1585 30.6422C59.1212 30.6422 58.1462 30.4843 57.2338 30.1692C56.3213 29.8537 55.5194 29.3763 54.8277 28.737C54.1433 28.0888 53.6063 27.2785 53.2163 26.3063C52.8262 25.3253 52.6313 24.1603 52.6313 22.8114C52.6313 21.5238 52.8152 20.3939 53.1831 19.4217C53.5511 18.4494 54.0662 17.6392 54.7282 16.991C55.3978 16.3341 56.1852 15.8392 57.0904 15.5063C58.0026 15.1735 59.0034 15.0071 60.0924 15.0071C61.4316 15.0071 62.5831 15.2173 63.5471 15.6377C64.5107 16.0582 65.2981 16.645 65.9089 17.3983C66.5197 18.1516 66.9686 19.0581 67.2554 20.118C67.5424 21.1779 67.6786 22.3559 67.6637 23.6523H58.9333ZM60.5669 18.5545C60.052 18.5545 59.6692 18.7735 59.4191 19.2114C59.1762 19.6406 59.0145 20.3545 58.9333 21.353H62.1672C62.1233 20.4946 61.9686 19.8158 61.7038 19.3165C61.4389 18.8085 61.0599 18.5545 60.5669 18.5545ZM69.8162 21.6027C69.6614 21.2085 69.4814 20.9238 69.2752 20.7486C69.0765 20.5647 68.6975 20.4727 68.1384 20.4727V15.5983H77.0012V20.4727C76.5303 20.4727 76.2249 20.556 76.085 20.7224C75.9526 20.88 75.9416 21.1297 76.0521 21.4713L77.2441 25.5048H77.4096L78.6679 21.4713C78.7781 21.1472 78.7636 20.9019 78.6237 20.7355C78.4913 20.5603 78.1894 20.4727 77.7185 20.4727V15.5983H83.8663V20.4727C83.3291 20.4727 82.9501 20.5603 82.7295 20.7355C82.5088 20.9019 82.3247 21.191 82.1775 21.6027L79.2197 30.0771H72.774L69.8162 21.6027ZM90.6319 23.6523C90.6615 24.9574 90.8675 25.8596 91.25 26.3589C91.64 26.8494 92.1956 27.0946 92.9167 27.0946C93.1595 27.0946 93.3949 27.0552 93.6232 26.9764C93.8585 26.8888 94.0755 26.753 94.2742 26.5691C94.4728 26.3764 94.6421 26.1267 94.782 25.8202C94.9292 25.5048 95.0249 25.1107 95.0688 24.6377H99.0863C98.9394 25.7676 98.6671 26.7136 98.2698 27.4756C97.8797 28.2377 97.3757 28.8552 96.7576 29.3282C96.1395 29.7924 95.4184 30.1252 94.5944 30.3267C93.7776 30.5369 92.8652 30.6422 91.857 30.6422C90.8195 30.6422 89.8448 30.4843 88.9323 30.1692C88.0199 29.8537 87.2179 29.3763 86.5263 28.737C85.8419 28.0888 85.3046 27.2785 84.9149 26.3063C84.5248 25.3253 84.3299 24.1603 84.3299 22.8114C84.3299 21.5238 84.5138 20.3939 84.8817 19.4217C85.2496 18.4494 85.7645 17.6392 86.4268 16.991C87.0964 16.3341 87.8838 15.8392 88.7889 15.5063C89.7011 15.1735 90.702 15.0071 91.791 15.0071C93.1301 15.0071 94.2817 15.2173 95.2456 15.6377C96.2093 16.0582 96.9967 16.645 97.6075 17.3983C98.218 18.1516 98.6671 19.0581 98.9539 20.118C99.241 21.1779 99.3771 22.3559 99.3623 23.6523H90.6319ZM92.2654 18.5545C91.7503 18.5545 91.3678 18.7735 91.1176 19.2114C90.8748 19.6406 90.713 20.3545 90.6319 21.353H93.8658C93.8218 20.4946 93.6671 19.8158 93.4024 19.3165C93.1374 18.8085 92.7584 18.5545 92.2654 18.5545ZM110.918 21.6815C110.918 21.3399 110.881 21.0684 110.808 20.8669C110.742 20.6567 110.653 20.499 110.543 20.3939C110.44 20.28 110.322 20.2056 110.19 20.1705C110.057 20.1355 109.928 20.118 109.803 20.118C109.325 20.118 108.968 20.2844 108.733 20.6173C108.497 20.9501 108.38 21.4231 108.38 22.0362V23.915C108.38 24.3793 108.446 24.7122 108.578 24.9136C108.718 25.1063 108.983 25.2027 109.373 25.2027H109.969V30.0771H100.742V25.2027H101.393C101.695 25.2027 101.923 25.0888 102.078 24.861C102.239 24.6246 102.32 24.3443 102.32 24.0202V21.5238C102.32 21.1121 102.217 20.8362 102.011 20.6961C101.813 20.5472 101.585 20.4727 101.327 20.4727H100.742V15.5983H107.298L107.066 19.2114H107.254C107.416 17.8625 107.912 16.8246 108.744 16.0976C109.575 15.3706 110.705 15.0071 112.132 15.0071C113.14 15.0071 113.961 15.1779 114.594 15.5195C115.226 15.8611 115.716 16.2947 116.061 16.8202C116.415 17.337 116.654 17.9019 116.779 18.5151C116.904 19.1195 116.967 19.6888 116.967 20.2231V23.915C116.967 24.3793 117.033 24.7122 117.165 24.9136C117.305 25.1063 117.57 25.2027 117.96 25.2027H118.556V30.0771H110.918V21.6815Z" fill="#F8F9FA"/>
<g filter="url(#filter0_d_78_282)">
<path d="M3.86816 9.30835L11.0457 11.4937C12.1573 11.8321 12.9349 13.0243 12.9349 14.3902V30.6553H6.64727V20.6394V15.393V14.0489V13.9202C6.64727 13.1409 6.39165 12.3924 5.93485 11.8341L3.86816 9.30835Z" fill="#F8F9FA"/>
</g>
<g filter="url(#filter1_d_78_282)">
<path d="M11.7354 8.56091L18.9211 10.827C20.0225 11.1743 20.7895 12.3607 20.7895 13.717V30.6404H14.5106V20.2808V14.8544V13.4641V13.2589C14.5106 12.4977 14.2667 11.7652 13.8287 11.2107L11.7354 8.56091Z" fill="#F8F9FA"/>
</g>
<g filter="url(#filter2_d_78_282)">
<path d="M18.7261 2.0246L20.8256 10.5606L12.9561 7.67537L18.7261 2.0246Z" fill="url(#paint0_linear_78_282)"/>
</g>
</g>
<defs>
<filter id="filter0_d_78_282" x="3.86816" y="5.30835" width="17.0664" height="29.347" filterUnits="userSpaceOnUse" color-interpolation-filters="sRGB">
<feFlood flood-opacity="0" result="BackgroundImageFix"/>
<feColorMatrix in="SourceAlpha" type="matrix" values="0 0 0 0 0 0 0 0 0 0 0 0 0 0 0 0 0 0 127 0" result="hardAlpha"/>
<feOffset dx="4"/>
<feGaussianBlur stdDeviation="2"/>
<feComposite in2="hardAlpha" operator="out"/>
<feColorMatrix type="matrix" values="0 0 0 0 0.0509804 0 0 0 0 0.0509804 0 0 0 0 0.34902 0 0 0 0.25 0"/>
<feBlend mode="normal" in2="BackgroundImageFix" result="effect1_dropShadow_78_282"/>
<feBlend mode="normal" in="SourceGraphic" in2="effect1_dropShadow_78_282" result="shape"/>
</filter>
<filter id="filter1_d_78_282" x="11.7354" y="4.56091" width="18.0537" height="30.0795" filterUnits="userSpaceOnUse" color-interpolation-filters="sRGB">
<feFlood flood-opacity="0" result="BackgroundImageFix"/>
<feColorMatrix in="SourceAlpha" type="matrix" values="0 0 0 0 0 0 0 0 0 0 0 0 0 0 0 0 0 0 127 0" result="hardAlpha"/>
<feOffset dx="5"/>
<feGaussianBlur stdDeviation="2"/>
<feComposite in2="hardAlpha" operator="out"/>
<feColorMatrix type="matrix" values="0 0 0 0 0.0509804 0 0 0 0 0.0509804 0 0 0 0 0.34902 0 0 0 0.25 0"/>
<feBlend mode="normal" in2="BackgroundImageFix" result="effect1_dropShadow_78_282"/>
<feBlend mode="normal" in="SourceGraphic" in2="effect1_dropShadow_78_282" result="shape"/>
</filter>
<filter id="filter2_d_78_282" x="12.9561" y="2.0246" width="15.8691" height="16.536" filterUnits="userSpaceOnUse" color-interpolation-filters="sRGB">
<feFlood flood-opacity="0" result="BackgroundImageFix"/>
<feColorMatrix in="SourceAlpha" type="matrix" values="0 0 0 0 0 0 0 0 0 0 0 0 0 0 0 0 0 0 127 0" result="hardAlpha"/>
<feOffset dx="4" dy="4"/>
<feGaussianBlur stdDeviation="2"/>
<feComposite in2="hardAlpha" operator="out"/>
<feColorMatrix type="matrix" values="0 0 0 0 0 0 0 0 0 0 0 0 0 0 0 0 0 0 0.25 0"/>
<feBlend mode="normal" in2="BackgroundImageFix" result="effect1_dropShadow_78_282"/>
<feBlend mode="normal" in="SourceGraphic" in2="effect1_dropShadow_78_282" result="shape"/>
</filter>
<linearGradient id="paint0_linear_78_282" x1="18.7261" y1="2.0246" x2="15.3795" y2="11.1526" gradientUnits="userSpaceOnUse">
<stop stop-color="#D0AA27"/>
<stop offset="1" stop-color="#A28D49"/>
</linearGradient>
<clipPath id="clip0_78_282">
<rect width="125" height="38" fill="white"/>
</clipPath>
</defs>
</svg>
