<svg width="885" height="207" viewBox="0 0 885 207" fill="none" xmlns="http://www.w3.org/2000/svg">
<path d="M98.1118 150.47C100.983 150.47 103.363 150.152 105.254 149.514C107.214 148.877 108.756 147.694 109.877 145.964C111.067 144.144 111.873 141.686 112.291 138.591C112.712 135.496 112.922 131.536 112.922 126.712H149.688V201.128H0V150.47C6.16232 150.47 10.5749 149.423 13.2354 147.329C15.8958 145.145 17.2272 141.094 17.2272 135.177V66.0867C17.2272 60.0788 15.8958 56.028 13.2354 53.9345C10.5749 51.7495 6.16232 50.6574 0 50.6574V0H149.688V74.4159H112.922C112.922 69.5912 112.712 65.6315 112.291 62.5365C111.873 59.4415 111.067 57.0291 109.877 55.2997C108.756 53.5703 107.214 52.3868 105.254 51.7495C103.363 51.0215 100.983 50.6574 98.1118 50.6574H79.2042V86.9776H112.712V111.146H79.2042V150.47H98.1118ZM236.035 0V135.724C236.035 141.822 237.189 145.828 239.501 147.739C241.812 149.56 244.752 150.47 248.324 150.47H251.161V201.128H162.713V150.47H166.81C170.523 150.47 173.252 148.968 175.005 145.964C176.824 142.869 177.734 139.547 177.734 135.997V66.0867C177.734 60.8071 176.439 56.9384 173.848 54.4804C171.328 51.9316 168.386 50.6574 165.025 50.6574H162.713V0H236.035ZM317.548 134.358C317.83 147.921 319.79 157.297 323.431 162.486C327.143 167.584 332.43 170.132 339.293 170.132C341.605 170.132 343.844 169.723 346.017 168.903C348.257 167.993 350.322 166.582 352.213 164.671C354.104 162.668 355.715 160.074 357.046 156.888C358.447 153.611 359.358 149.514 359.776 144.599H398.014C396.614 156.341 394.023 166.173 390.241 174.092C386.529 182.012 381.731 188.429 375.849 193.345C369.966 198.169 363.103 201.628 355.261 203.722C347.487 205.906 338.803 207 329.208 207C319.336 207 310.057 205.359 301.373 202.085C292.689 198.806 285.056 193.845 278.473 187.2C271.959 180.464 266.849 172.044 263.137 161.94C259.424 151.744 257.57 139.638 257.57 125.619C257.57 112.238 259.319 100.495 262.821 90.3914C266.323 80.2871 271.226 71.8668 277.527 65.1309C283.899 58.3037 291.393 53.1605 300.008 49.7013C308.69 46.2425 318.215 44.5128 328.58 44.5128C341.325 44.5128 352.285 46.6977 361.459 51.0669C370.631 55.4364 378.124 61.5351 383.938 69.3637C389.751 77.1921 394.023 86.6135 396.752 97.6282C399.484 108.643 400.78 120.886 400.639 134.358H317.548ZM333.095 81.3795C328.195 81.3795 324.552 83.6552 322.171 88.2065C319.86 92.6671 318.32 100.086 317.548 110.463H348.326C347.908 101.542 346.435 94.4875 343.916 89.299C341.394 84.0194 337.787 81.3795 333.095 81.3795ZM421.124 113.057C419.652 108.961 417.938 106.003 415.975 104.182C414.085 102.271 410.478 101.315 405.157 101.315V50.6574H489.507V101.315C485.025 101.315 482.119 102.179 480.787 103.909C479.528 105.548 479.422 108.142 480.474 111.692L491.819 153.611H493.394L505.37 111.692C506.419 108.324 506.28 105.775 504.949 104.046C503.689 102.225 500.816 101.315 496.334 101.315V50.6574H554.845V101.315C549.732 101.315 546.125 102.225 544.026 104.046C541.925 105.775 540.173 108.779 538.772 113.057L510.621 201.128H449.275L421.124 113.057ZM619.236 134.358C619.518 147.921 621.478 157.297 625.119 162.486C628.831 167.584 634.119 170.132 640.981 170.132C643.293 170.132 645.533 169.723 647.705 168.903C649.945 167.993 652.01 166.582 653.901 164.671C655.792 162.668 657.403 160.074 658.734 156.888C660.135 153.611 661.046 149.514 661.464 144.599H699.7C698.302 156.341 695.711 166.173 691.929 174.092C688.217 182.012 683.42 188.429 677.537 193.345C671.654 198.169 664.792 201.628 656.949 203.722C649.175 205.906 640.491 207 630.896 207C621.022 207 611.745 205.359 603.061 202.085C594.377 198.806 586.744 193.845 580.161 187.2C573.648 180.464 568.535 172.044 564.825 161.94C561.113 151.744 559.258 139.638 559.258 125.619C559.258 112.238 561.007 100.495 564.509 90.3914C568.011 80.2871 572.911 71.8668 579.215 65.1309C585.587 58.3037 593.081 53.1605 601.696 49.7013C610.378 46.2425 619.903 44.5128 630.268 44.5128C643.013 44.5128 653.973 46.6977 663.147 51.0669C672.319 55.4364 679.812 61.5351 685.626 69.3637C691.437 77.1921 695.711 86.6135 698.44 97.6282C701.173 108.643 702.468 120.886 702.327 134.358H619.236ZM634.783 81.3795C629.88 81.3795 626.24 83.6552 623.859 88.2065C621.548 92.6671 620.008 100.086 619.236 110.463H650.014C649.596 101.542 648.124 94.4875 645.604 89.299C643.082 84.0194 639.475 81.3795 634.783 81.3795ZM812.31 113.877C812.31 110.327 811.958 107.505 811.258 105.411C810.629 103.226 809.788 101.588 808.738 100.495C807.758 99.3119 806.637 98.5382 805.375 98.1741C804.115 97.8099 802.889 97.6282 801.699 97.6282C797.147 97.6282 793.751 99.3576 791.511 102.817C789.269 106.276 788.148 111.191 788.148 117.563V137.089C788.148 141.913 788.779 145.373 790.039 147.466C791.37 149.469 793.892 150.47 797.604 150.47H803.276V201.128H715.457V150.47H721.656C724.526 150.47 726.697 149.287 728.169 146.92C729.709 144.462 730.478 141.549 730.478 138.181V112.238C730.478 107.96 729.498 105.092 727.538 103.636C725.647 102.088 723.477 101.315 721.024 101.315H715.457V50.6574H777.855L775.649 88.2065H777.434C778.976 74.1881 783.702 63.4012 791.616 55.8459C799.528 48.2904 810.278 44.5128 823.864 44.5128C833.459 44.5128 841.266 46.2879 847.29 49.838C853.311 53.3882 857.967 57.8941 861.259 63.3558C864.622 68.7265 866.898 74.5977 868.088 80.9697C869.279 87.2507 869.874 93.1676 869.874 98.7203V137.089C869.874 141.913 870.505 145.373 871.765 147.466C873.096 149.469 875.615 150.47 879.328 150.47H885V201.128H812.31V113.877Z" fill="#F8F9FA"/>
</svg>
