<svg width="125" height="38" viewBox="0 0 125 38" fill="none" xmlns="http://www.w3.org/2000/svg">
<g clip-path="url(#clip0_345_69)">
<path d="M125 0H0V38H125V0Z" fill="#805DC2"/>
<path d="M35.8768 25.2027C36.1784 25.2027 36.4286 25.172 36.6272 25.1107C36.8332 25.0494 36.9952 24.9355 37.113 24.7691C37.238 24.5939 37.3227 24.3574 37.3666 24.0596C37.4108 23.7618 37.4329 23.3807 37.4329 22.9165H41.296V30.0771H25.5681V25.2027C26.2156 25.2027 26.6792 25.1019 26.9588 24.9004C27.2383 24.6902 27.3782 24.3005 27.3782 23.7311V17.083C27.3782 16.5049 27.2383 16.1151 26.9588 15.9136C26.6792 15.7034 26.2156 15.5983 25.5681 15.5983V10.7239H41.296V17.8844H37.4329C37.4329 17.4202 37.4108 17.0392 37.3666 16.7414C37.3227 16.4435 37.238 16.2114 37.113 16.045C36.9952 15.8786 36.8332 15.7647 36.6272 15.7034C36.4286 15.6334 36.1784 15.5983 35.8768 15.5983H33.8901V19.0932H37.4108V21.4187H33.8901V25.2027H35.8768ZM50.3684 10.7239V23.7837C50.3684 24.3705 50.4898 24.7559 50.7326 24.9399C50.9755 25.1151 51.2844 25.2027 51.6596 25.2027H51.9578V30.0771H42.6645V25.2027H43.095C43.485 25.2027 43.7719 25.0581 43.9559 24.7691C44.1471 24.4713 44.2428 24.1516 44.2428 23.81V17.083C44.2428 16.5749 44.1066 16.2027 43.8344 15.9662C43.5697 15.7209 43.2605 15.5983 42.9074 15.5983H42.6645V10.7239H50.3684ZM58.9331 23.6523C58.9627 24.9574 59.1687 25.8596 59.5512 26.3589C59.9412 26.8494 60.4968 27.0946 61.2178 27.0946C61.4607 27.0946 61.6961 27.0552 61.9244 26.9764C62.1597 26.8888 62.3767 26.753 62.5753 26.5691C62.774 26.3764 62.9433 26.1267 63.0832 25.8202C63.2304 25.5048 63.326 25.1107 63.37 24.6377H67.3877C67.2406 25.7676 66.9683 26.7136 66.571 27.4756C66.1809 28.2377 65.6769 28.8552 65.0588 29.3282C64.4407 29.7924 63.7196 30.1252 62.8956 30.3267C62.0788 30.5369 61.1664 30.6422 60.1582 30.6422C59.121 30.6422 58.146 30.4843 57.2335 30.1692C56.3211 29.8537 55.5191 29.3763 54.8275 28.737C54.1431 28.0888 53.6061 27.2785 53.216 26.3063C52.826 25.3253 52.6311 24.1603 52.6311 22.8114C52.6311 21.5238 52.815 20.3939 53.1829 19.4217C53.5508 18.4494 54.066 17.6392 54.728 16.991C55.3976 16.3341 56.185 15.8392 57.0901 15.5063C58.0023 15.1735 59.0032 15.0071 60.0922 15.0071C61.4313 15.0071 62.5829 15.2173 63.5468 15.6377C64.5105 16.0582 65.2979 16.645 65.9087 17.3983C66.5195 18.1516 66.9683 19.0581 67.2551 20.118C67.5422 21.1779 67.6783 22.3559 67.6635 23.6523H58.9331ZM60.5666 18.5545C60.0517 18.5545 59.669 18.7735 59.4188 19.2114C59.176 19.6406 59.0142 20.3545 58.9331 21.353H62.167C62.123 20.4946 61.9683 19.8158 61.7036 19.3165C61.4386 18.8085 61.0596 18.5545 60.5666 18.5545ZM69.8159 21.6027C69.6612 21.2085 69.4811 20.9238 69.2749 20.7486C69.0762 20.5647 68.6973 20.4727 68.1382 20.4727V15.5983H77.001V20.4727C76.53 20.4727 76.2246 20.556 76.0847 20.7224C75.9524 20.88 75.9413 21.1297 76.0518 21.4713L77.2438 25.5048H77.4093L78.6676 21.4713C78.7779 21.1472 78.7633 20.9019 78.6234 20.7355C78.4911 20.5603 78.1892 20.4727 77.7183 20.4727V15.5983H83.866V20.4727C83.3288 20.4727 82.9498 20.5603 82.7293 20.7355C82.5085 20.9019 82.3244 21.191 82.1773 21.6027L79.2194 30.0771H72.7738L69.8159 21.6027ZM90.6317 23.6523C90.6613 24.9574 90.8672 25.8596 91.2497 26.3589C91.6398 26.8494 92.1954 27.0946 92.9164 27.0946C93.1593 27.0946 93.3946 27.0552 93.6229 26.9764C93.8582 26.8888 94.0752 26.753 94.2739 26.5691C94.4726 26.3764 94.6419 26.1267 94.7817 25.8202C94.9289 25.5048 95.0246 25.1107 95.0686 24.6377H99.086C98.9391 25.7676 98.6669 26.7136 98.2695 27.4756C97.8795 28.2377 97.3754 28.8552 96.7573 29.3282C96.1392 29.7924 95.4182 30.1252 94.5941 30.3267C93.7774 30.5369 92.8649 30.6422 91.8568 30.6422C90.8193 30.6422 89.8445 30.4843 88.9321 30.1692C88.0196 29.8537 87.2177 29.3763 86.526 28.737C85.8416 28.0888 85.3044 27.2785 84.9146 26.3063C84.5246 25.3253 84.3297 24.1603 84.3297 22.8114C84.3297 21.5238 84.5135 20.3939 84.8815 19.4217C85.2494 18.4494 85.7643 17.6392 86.4266 16.991C87.0961 16.3341 87.8835 15.8392 88.7887 15.5063C89.7009 15.1735 90.7017 15.0071 91.7907 15.0071C93.1299 15.0071 94.2814 15.2173 95.2454 15.6377C96.2091 16.0582 96.9964 16.645 97.6072 17.3983C98.2178 18.1516 98.6669 19.0581 98.9537 20.118C99.2408 21.1779 99.3769 22.3559 99.3621 23.6523H90.6317ZM92.2652 18.5545C91.75 18.5545 91.3675 18.7735 91.1174 19.2114C90.8745 19.6406 90.7128 20.3545 90.6317 21.353H93.8655C93.8216 20.4946 93.6669 19.8158 93.4021 19.3165C93.1372 18.8085 92.7582 18.5545 92.2652 18.5545ZM110.918 21.6815C110.918 21.3399 110.881 21.0684 110.807 20.8669C110.741 20.6567 110.653 20.499 110.543 20.3939C110.44 20.28 110.322 20.2056 110.189 20.1705C110.057 20.1355 109.928 20.118 109.803 20.118C109.325 20.118 108.968 20.2844 108.733 20.6173C108.497 20.9501 108.379 21.4231 108.379 22.0362V23.915C108.379 24.3793 108.446 24.7122 108.578 24.9136C108.718 25.1063 108.983 25.2027 109.373 25.2027H109.969V30.0771H100.742V25.2027H101.393C101.695 25.2027 101.923 25.0888 102.077 24.861C102.239 24.6246 102.32 24.3443 102.32 24.0202V21.5238C102.32 21.1121 102.217 20.8362 102.011 20.6961C101.812 20.5472 101.584 20.4727 101.327 20.4727H100.742V15.5983H107.298L107.066 19.2114H107.254C107.416 17.8625 107.912 16.8246 108.744 16.0976C109.575 15.3706 110.704 15.0071 112.132 15.0071C113.14 15.0071 113.96 15.1779 114.593 15.5195C115.226 15.8611 115.715 16.2947 116.061 16.8202C116.415 17.337 116.654 17.9019 116.779 18.5151C116.904 19.1195 116.966 19.6888 116.966 20.2231V23.915C116.966 24.3793 117.033 24.7122 117.165 24.9136C117.305 25.1063 117.57 25.2027 117.96 25.2027H118.556V30.0771H110.918V21.6815Z" fill="#F8F9FA"/>
<g filter="url(#filter0_d_345_69)">
<path d="M3.86768 9.30835L11.0452 11.4937C12.1568 11.8321 12.9344 13.0243 12.9344 14.3902V30.6553H6.64679V20.6394V15.393V14.0489V13.9202C6.64679 13.1409 6.39116 12.3924 5.93436 11.8341L3.86768 9.30835Z" fill="#F8F9FA"/>
</g>
<g filter="url(#filter1_d_345_69)">
<path d="M11.7354 8.56091L18.9211 10.827C20.0225 11.1743 20.7895 12.3607 20.7895 13.717V30.6404H14.5106V20.2808V14.8544V13.4641V13.2589C14.5106 12.4977 14.2667 11.7652 13.8287 11.2107L11.7354 8.56091Z" fill="#F8F9FA"/>
</g>
<g filter="url(#filter2_d_345_69)">
<path d="M18.7258 2.02454L20.8254 10.5605L12.9558 7.67531L18.7258 2.02454Z" fill="url(#paint0_linear_345_69)"/>
</g>
</g>
<defs>
<filter id="filter0_d_345_69" x="3.86768" y="5.30835" width="17.0667" height="29.3469" filterUnits="userSpaceOnUse" color-interpolation-filters="sRGB">
<feFlood flood-opacity="0" result="BackgroundImageFix"/>
<feColorMatrix in="SourceAlpha" type="matrix" values="0 0 0 0 0 0 0 0 0 0 0 0 0 0 0 0 0 0 127 0" result="hardAlpha"/>
<feOffset dx="4"/>
<feGaussianBlur stdDeviation="2"/>
<feComposite in2="hardAlpha" operator="out"/>
<feColorMatrix type="matrix" values="0 0 0 0 0.0509804 0 0 0 0 0.0509804 0 0 0 0 0.34902 0 0 0 0.25 0"/>
<feBlend mode="normal" in2="BackgroundImageFix" result="effect1_dropShadow_345_69"/>
<feBlend mode="normal" in="SourceGraphic" in2="effect1_dropShadow_345_69" result="shape"/>
</filter>
<filter id="filter1_d_345_69" x="11.7354" y="4.56091" width="18.0542" height="30.0795" filterUnits="userSpaceOnUse" color-interpolation-filters="sRGB">
<feFlood flood-opacity="0" result="BackgroundImageFix"/>
<feColorMatrix in="SourceAlpha" type="matrix" values="0 0 0 0 0 0 0 0 0 0 0 0 0 0 0 0 0 0 127 0" result="hardAlpha"/>
<feOffset dx="5"/>
<feGaussianBlur stdDeviation="2"/>
<feComposite in2="hardAlpha" operator="out"/>
<feColorMatrix type="matrix" values="0 0 0 0 0.0509804 0 0 0 0 0.0509804 0 0 0 0 0.34902 0 0 0 0.25 0"/>
<feBlend mode="normal" in2="BackgroundImageFix" result="effect1_dropShadow_345_69"/>
<feBlend mode="normal" in="SourceGraphic" in2="effect1_dropShadow_345_69" result="shape"/>
</filter>
<filter id="filter2_d_345_69" x="12.9558" y="2.02454" width="15.8696" height="16.536" filterUnits="userSpaceOnUse" color-interpolation-filters="sRGB">
<feFlood flood-opacity="0" result="BackgroundImageFix"/>
<feColorMatrix in="SourceAlpha" type="matrix" values="0 0 0 0 0 0 0 0 0 0 0 0 0 0 0 0 0 0 127 0" result="hardAlpha"/>
<feOffset dx="4" dy="4"/>
<feGaussianBlur stdDeviation="2"/>
<feComposite in2="hardAlpha" operator="out"/>
<feColorMatrix type="matrix" values="0 0 0 0 0 0 0 0 0 0 0 0 0 0 0 0 0 0 0.25 0"/>
<feBlend mode="normal" in2="BackgroundImageFix" result="effect1_dropShadow_345_69"/>
<feBlend mode="normal" in="SourceGraphic" in2="effect1_dropShadow_345_69" result="shape"/>
</filter>
<linearGradient id="paint0_linear_345_69" x1="18.7258" y1="2.02454" x2="15.3792" y2="11.1525" gradientUnits="userSpaceOnUse">
<stop stop-color="#D0AA27"/>
<stop offset="1" stop-color="#A28D49"/>
</linearGradient>
<clipPath id="clip0_345_69">
<rect width="125" height="38" rx="8" fill="white"/>
</clipPath>
</defs>
</svg>
