<svg width="45" height="45" viewBox="0 0 45 45" fill="none" xmlns="http://www.w3.org/2000/svg">
<path d="M21.0938 0C23.0273 0 24.895 0.249023 26.6968 0.74707C28.4985 1.24512 30.1758 1.95557 31.7285 2.87842C33.2812 3.80127 34.7021 4.8999 35.9912 6.17432C37.2803 7.44873 38.3789 8.86963 39.2871 10.437C40.1953 12.0044 40.9058 13.689 41.4185 15.4907C41.9312 17.2925 42.1875 19.1602 42.1875 21.0938C42.1875 23.0273 41.9385 24.895 41.4404 26.6968C40.9424 28.4985 40.2319 30.1758 39.3091 31.7285C38.3862 33.2812 37.2876 34.7021 36.0132 35.9912C34.7388 37.2803 33.3179 38.3789 31.7505 39.2871C30.1831 40.1953 28.4985 40.9058 26.6968 41.4185C24.895 41.9312 23.0273 42.1875 21.0938 42.1875C19.1602 42.1875 17.2925 41.9385 15.4907 41.4404C13.689 40.9424 12.0117 40.2319 10.459 39.3091C8.90625 38.3862 7.48535 37.2876 6.19629 36.0132C4.90723 34.7388 3.80859 33.3179 2.90039 31.7505C1.99219 30.1831 1.28174 28.5059 0.769043 26.7188C0.256348 24.9316 0 23.0566 0 21.0938C0 19.1602 0.249023 17.2925 0.74707 15.4907C1.24512 13.689 1.95557 12.0117 2.87842 10.459C3.80127 8.90625 4.8999 7.48535 6.17432 6.19629C7.44873 4.90723 8.86963 3.80859 10.437 2.90039C12.0044 1.99219 13.6816 1.28174 15.4688 0.769043C17.2559 0.256348 19.1309 0 21.0938 0ZM33.75 19.6875H22.5V8.4375H19.6875V19.6875H8.4375V22.5H19.6875V33.75H22.5V22.5H33.75V19.6875Z" fill="#4D4ADD"/>
</svg>
