<svg width="45" height="45" viewBox="0 0 45 45" fill="none" xmlns="http://www.w3.org/2000/svg">
<path d="M20.6151 8.775V16.05C20.6151 16.6524 20.4962 17.2488 20.2651 17.8051C20.034 18.3614 19.6953 18.8666 19.2685 19.2917C18.8417 19.7167 18.3352 20.0533 17.7779 20.2821C17.2207 20.511 16.6238 20.6275 16.0214 20.625H8.78389C8.18314 20.6286 7.58784 20.511 7.03368 20.279C6.47951 20.047 5.97789 19.7055 5.55889 19.275C5.13348 18.8531 4.79659 18.3506 4.56799 17.7968C4.33939 17.243 4.22368 16.6491 4.22764 16.05V8.79375C4.22763 7.58363 4.70706 6.42279 5.56099 5.56535C6.41492 4.70791 7.57377 4.22371 8.78389 4.21875H16.0401C16.6403 4.21933 17.2343 4.33894 17.7879 4.57067C18.3415 4.8024 18.8436 5.14164 19.2651 5.56875C19.6917 5.98684 20.0307 6.48567 20.2625 7.03614C20.4943 7.58662 20.6142 8.17772 20.6151 8.775ZM40.7714 8.79375V16.05C40.7617 17.2571 40.2791 18.4123 39.4273 19.2677C38.5754 20.123 37.4222 20.6103 36.2151 20.625H28.9401C27.7274 20.6176 26.5647 20.1404 25.6964 19.2937C25.2721 18.8672 24.9361 18.3611 24.7077 17.8045C24.4792 17.2479 24.3628 16.6517 24.3651 16.05V8.79375C24.3636 8.19332 24.4823 7.59865 24.7141 7.04479C24.946 6.49092 25.2863 5.98905 25.7151 5.56875C26.1367 5.14164 26.6388 4.8024 27.1924 4.57067C27.746 4.33894 28.34 4.21933 28.9401 4.21875H36.1964C37.4067 4.22855 38.5647 4.7137 39.4206 5.56957C40.2764 6.42543 40.7616 7.58342 40.7714 8.79375ZM40.7714 28.95V36.2062C40.7617 37.4134 40.2791 38.5686 39.4273 39.4239C38.5754 40.2793 37.4222 40.7666 36.2151 40.7812H28.9401C27.7197 40.7936 26.5425 40.3295 25.6589 39.4875C25.2329 39.0622 24.8958 38.5563 24.6673 37.9994C24.4387 37.4425 24.3233 36.8457 24.3276 36.2438V28.9875C24.3261 28.3871 24.4448 27.7924 24.6766 27.2385C24.9085 26.6847 25.2488 26.1828 25.6776 25.7625C26.0992 25.3354 26.6013 24.9962 27.1549 24.7644C27.7085 24.5327 28.3025 24.4131 28.9026 24.4125H36.1589C37.3692 24.4223 38.5272 24.9075 39.3831 25.7633C40.2389 26.6192 40.7241 27.7772 40.7339 28.9875L40.7714 28.95ZM20.6151 28.9688V36.225C20.6004 37.4353 20.1105 38.5913 19.2511 39.4437C18.3917 40.296 17.2318 40.7764 16.0214 40.7812H8.78389C8.18486 40.7837 7.59127 40.6676 7.03736 40.4395C6.48345 40.2114 5.98018 39.8759 5.5566 39.4523C5.13302 39.0287 4.7975 38.5254 4.56941 37.9715C4.34131 37.4176 4.22516 36.824 4.22764 36.225V28.9688C4.23247 27.7584 4.71287 26.5984 5.56523 25.739C6.41759 24.8796 7.57359 24.3898 8.78389 24.375H16.0401C17.2555 24.3874 18.4186 24.8715 19.2839 25.725C20.1391 26.5877 20.6177 27.754 20.6151 28.9688Z" fill="#4D4ADD"/>
</svg>
