<svg width="188" height="78" viewBox="0 0 188 78" fill="none" xmlns="http://www.w3.org/2000/svg">
<rect width="20" height="20" fill="#BAFF76"/>
<rect y="29" width="20" height="20" fill="#F8F9FA"/>
<rect y="58" width="20" height="20" fill="#F8F9FA"/>
<rect x="28" y="58" width="20" height="20" fill="#F8F9FA"/>
<rect x="28" y="29" width="20" height="20" fill="#F8F9FA"/>
<rect x="28" width="20" height="20" fill="#F8F9FA"/>
<rect x="56" y="58" width="20" height="20" fill="#F8F9FA"/>
<rect x="56" y="29" width="20" height="20" fill="#F8F9FA"/>
<rect x="56" width="20" height="20" fill="#F8F9FA"/>
<rect x="84" y="58" width="20" height="20" fill="#F8F9FA"/>
<rect x="84" y="29" width="20" height="20" fill="#F8F9FA"/>
<rect x="84" width="20" height="20" fill="#F8F9FA"/>
<rect x="112" y="58" width="20" height="20" fill="#F8F9FA"/>
<rect x="112" y="29" width="20" height="20" fill="#F8F9FA"/>
<rect x="112" width="20" height="20" fill="#F8F9FA"/>
<rect x="140" y="58" width="20" height="20" fill="#F8F9FA"/>
<rect x="140" y="29" width="20" height="20" fill="#F8F9FA"/>
<rect x="140" width="20" height="20" fill="#F8F9FA"/>
<rect x="168" y="58" width="20" height="20" fill="#F8F9FA"/>
<rect x="168" y="29" width="20" height="20" fill="#F8F9FA"/>
<rect x="168" width="20" height="20" fill="#F8F9FA"/>
</svg>
