<svg width="45" height="45" viewBox="0 0 45 45" fill="none" xmlns="http://www.w3.org/2000/svg">
<path d="M23.9607 0.0468807C20.5393 -0.176191 17.113 0.398938 13.9519 1.72688C10.7857 3.05531 7.97211 5.10244 5.73382 7.70625C3.48772 10.315 1.87403 13.4069 1.01839 16.7414C0.162748 20.0758 0.0882508 23.5627 0.800696 26.9306C1.50762 30.2976 2.98357 33.4555 5.1132 36.1575C7.2377 38.8552 9.95902 41.0233 13.0632 42.4913C16.1621 43.9583 19.56 44.6838 22.9879 44.6102C26.4158 44.5367 29.7794 43.6661 32.8126 42.0675C32.9098 42.0179 33.0184 41.9949 33.1274 42.0008C33.2364 42.0067 33.3419 42.0414 33.4332 42.1013C36.3136 44.0302 39.7112 45.0403 43.1776 44.9981C43.2595 44.9986 43.3406 44.9829 43.4164 44.9518C43.4921 44.9207 43.561 44.8748 43.6189 44.8169C43.6768 44.759 43.7226 44.6902 43.7537 44.6144C43.7848 44.5387 43.8006 44.4575 43.8001 44.3756V36.8044C43.801 36.6565 43.7495 36.513 43.6548 36.3994C43.5601 36.2858 43.4282 36.2094 43.2826 36.1838C42.5694 36.0701 41.873 35.8692 41.2088 35.5856C41.085 35.5301 40.9829 35.4354 40.9182 35.3162C40.8535 35.1969 40.8298 35.0597 40.8507 34.9256C40.8615 34.8362 40.8937 34.7507 40.9444 34.6763C43.1102 31.4164 44.3836 27.6458 44.6376 23.7403C44.8915 19.8348 44.1173 15.931 42.3919 12.4181C40.6711 8.91057 38.0573 5.91779 34.8132 3.74063C31.5768 1.5683 27.8239 0.289527 23.9344 0.0337557L23.9607 0.0468807ZM9.0807 22.3088C9.07869 19.6379 9.86461 17.0257 11.3401 14.7994C12.8139 12.5804 14.9113 10.847 17.3682 9.8175C19.8239 8.79027 22.5304 8.51953 25.141 9.03997C27.7515 9.56041 30.1473 10.8483 32.0213 12.7388C33.9018 14.6345 35.1814 17.0428 35.7 19.6622C36.2186 22.2816 35.9532 24.9957 34.9369 27.465C33.9205 29.9315 32.196 32.0415 29.9813 33.5288C27.3975 35.2605 24.2918 36.04 21.1964 35.7335C18.101 35.427 15.2085 34.0536 13.0144 31.8488C10.4929 29.3128 9.07564 25.8831 9.07132 22.3069L9.0807 22.3088Z" fill="#4D4ADD"/>
</svg>
