<svg width="45" height="45" viewBox="0 0 45 45" fill="none" xmlns="http://www.w3.org/2000/svg">
<path d="M45 13.5L42.75 11.25L39.375 14.625L36 11.25L33.75 13.5L37.125 16.875L33.75 20.25L36 22.5L39.375 19.125L42.75 22.5L45 20.25L41.625 16.875L45 13.5Z" fill="#4D4ADD"/>
<path d="M16.875 40.5C21.2242 40.5 24.75 36.9742 24.75 32.625C24.75 28.2758 21.2242 24.75 16.875 24.75C12.5258 24.75 9 28.2758 9 32.625C9 36.9742 12.5258 40.5 16.875 40.5Z" fill="#4D4ADD"/>
<path d="M15.75 11.25C18.2353 11.25 20.25 9.23528 20.25 6.75C20.25 4.26472 18.2353 2.25 15.75 2.25C13.2647 2.25 11.25 4.26472 11.25 6.75C11.25 9.23528 13.2647 11.25 15.75 11.25Z" fill="#4D4ADD"/>
<path d="M29.25 18C30.4926 18 31.5 16.9926 31.5 15.75C31.5 14.5074 30.4926 13.5 29.25 13.5C28.0074 13.5 27 14.5074 27 15.75C27 16.9926 28.0074 18 29.25 18Z" fill="#4D4ADD"/>
<path d="M22.5 15.75C23.7426 15.75 24.75 14.7426 24.75 13.5C24.75 12.2574 23.7426 11.25 22.5 11.25C21.2574 11.25 20.25 12.2574 20.25 13.5C20.25 14.7426 21.2574 15.75 22.5 15.75Z" fill="#4D4ADD"/>
<path d="M6.75 9C7.99264 9 9 7.99264 9 6.75C9 5.50736 7.99264 4.5 6.75 4.5C5.50736 4.5 4.5 5.50736 4.5 6.75C4.5 7.99264 5.50736 9 6.75 9Z" fill="#4D4ADD"/>
<path d="M2.25 15.75C3.49264 15.75 4.5 14.7426 4.5 13.5C4.5 12.2574 3.49264 11.25 2.25 11.25C1.00736 11.25 0 12.2574 0 13.5C0 14.7426 1.00736 15.75 2.25 15.75Z" fill="#4D4ADD"/>
<path d="M2.25 22.5C3.49264 22.5 4.5 21.4926 4.5 20.25C4.5 19.0074 3.49264 18 2.25 18C1.00736 18 0 19.0074 0 20.25C0 21.4926 1.00736 22.5 2.25 22.5Z" fill="#4D4ADD"/>
<path d="M6.75 29.25C7.99264 29.25 9 28.2426 9 27C9 25.7574 7.99264 24.75 6.75 24.75C5.50736 24.75 4.5 25.7574 4.5 27C4.5 28.2426 5.50736 29.25 6.75 29.25Z" fill="#4D4ADD"/>
</svg>
